<svg width="64px" height="64px" viewBox="0 0 64 64" version="1.1" xmlns="http://www.w3.org/2000/svg" xmlns:xlink="http://www.w3.org/1999/xlink">
    <g stroke="none" stroke-width="1" fill="none" fill-rule="evenodd">
        <g transform="translate(-538.000000, -902.000000)" fill="#FFFFFF">
            <g transform="translate(135.000000, 814.000000)">
                <g transform="translate(300.000000, 64.000000)">
                    <path d="M103.380596,60.1109787 C103.436426,60.8211064 103.545362,61.5285106 103.707404,62.1828085 L103.87217,62.9991489 C104.252766,64.850383 104.798128,66.6485106 105.561362,68.3370213 C105.670298,68.6086809 105.776511,68.882383 105.885447,69.1002553 C106.15983,69.6987234 106.430809,70.2971915 106.758298,70.898383 C106.923064,71.1693617 107.032,71.4410213 107.194043,71.7147234 C107.521532,72.3131915 107.901447,72.9116596 108.284766,73.5128511 C108.393702,73.6748936 108.499915,73.892766 108.664681,74.0554894 C108.717787,74.1113191 108.717787,74.1644255 108.773617,74.2202553 C108.827404,74.2733617 108.883234,74.3291915 108.883234,74.3822979 C109.755404,75.6350638 110.733787,76.8347234 111.824511,77.9778723 C111.824511,77.9778723 111.877617,78.0309787 111.877617,78.0868085 C111.933447,78.1964255 112.042383,78.2495319 112.151319,78.3584681 L112.802894,79.012766 C112.912511,79.0685957 112.96834,79.1748085 113.077277,79.2837447 L113.130383,79.3395745 C114.274213,80.4302979 115.526298,81.4645106 116.834894,82.3904681 C116.888,82.4435745 116.94383,82.4994043 116.997617,82.4994043 C117.816681,83.044766 118.686128,83.533617 119.502468,84.0231489 C119.667234,84.1320851 119.885787,84.2417021 120.04783,84.2975319 C120.702128,84.6774468 121.409532,85.0049362 122.116936,85.2759149 C122.334809,85.3848511 122.500255,85.4406809 122.718128,85.549617 C124.460426,86.2570213 126.310979,86.8554894 128.164936,87.2388085 C128.382809,87.2919149 128.654468,87.3450213 128.87234,87.4008511 C129.579745,87.5097872 130.287149,87.6725106 131.050383,87.7283404 C131.324766,87.7814468 131.595745,87.7814468 131.866723,87.8372766 C132.848511,87.9462128 133.773787,87.9993191 134.755574,87.9993191 C141.345532,87.9993191 147.446638,85.9833191 152.457702,82.5525106 C152.457702,82.5525106 152.510809,82.5525106 152.510809,82.4994043 C153.274043,82.0071489 153.981447,81.4645106 154.691574,80.864 C154.797787,80.754383 154.906723,80.7012766 155.01566,80.5923404 C155.507915,80.1565957 155.997447,79.7201702 156.486979,79.2306383 L157.630128,78.0868085 C157.904511,77.8131064 158.122383,77.4890213 158.393362,77.2146383 C158.667745,76.8878298 158.99183,76.6161702 159.210383,76.2362553 C159.755064,75.5819574 160.244596,74.9276596 160.736851,74.2202553 C160.736851,74.2202553 160.736851,74.1644255 160.789957,74.1644255 C164.276596,69.1002553 166.345702,62.9433191 166.345702,56.2995745 C166.345702,55.3184681 166.292596,54.3400851 166.18366,53.4114043 C166.18366,53.1404255 166.12783,52.868766 166.074723,52.5950638 C165.965106,51.8876596 165.85617,51.1244255 165.747234,50.4170213 C165.691404,50.1991489 165.638298,49.9274894 165.585191,49.709617 C165.201872,47.8556596 164.603404,46.0044255 163.896,44.2628085 C163.787064,44.0442553 163.731234,43.8794894 163.622298,43.6643404 C163.295489,42.9542128 162.968,42.3026383 162.643915,41.5925106 C162.534298,41.4304681 162.478468,41.2119149 162.369532,41.0471489 C161.88,40.1777021 161.391149,39.3613617 160.845787,38.541617 L160.681021,38.3795745 C160.300426,37.8342128 159.864681,37.2895319 159.484085,36.7468936 C159.484085,36.6910638 159.484085,36.6910638 159.428255,36.6379574 C159.375149,36.5821277 159.319319,36.5283404 159.319319,36.4725106 C157.904511,34.6750638 156.268426,33.0948085 154.473702,31.6241702 C154.417872,31.5710638 154.364085,31.515234 154.308255,31.515234 C154.308255,31.515234 154.255149,31.515234 154.199319,31.4621277 C153.709787,31.0815319 153.220936,30.6988936 152.728681,30.3714043 C152.675574,30.3182979 152.619745,30.2624681 152.566638,30.2624681 C152.510809,30.2093617 152.457702,30.2093617 152.401872,30.1535319 C152.239149,30.0473191 152.021277,29.938383 151.859234,29.8294468 C151.258043,29.4461277 150.659574,29.0655319 150.005277,28.7387234 C149.734298,28.5766809 149.459915,28.4677447 149.188936,28.3022979 C148.590468,27.9754894 147.989277,27.7038298 147.390809,27.4301277 C147.11983,27.3239149 146.901277,27.2149787 146.627574,27.1060426 C144.885957,26.3959149 143.08783,25.8532766 141.236596,25.4168511 L140.420255,25.2520851 L138.295319,24.9245957 C138.02366,24.8714894 137.749957,24.8714894 137.423149,24.8156596 C136.444085,24.7067234 135.518809,24.653617 134.537021,24.653617 C127.891234,24.653617 121.737021,26.7227234 116.670128,30.2093617 C116.670128,30.2093617 116.617021,30.2093617 116.617021,30.2624681 C116.018553,30.6457872 115.473191,31.0815319 114.928511,31.515234 C114.874723,31.5710638 114.818894,31.5710638 114.818894,31.6241702 C113.021447,33.0417021 111.441191,34.6750638 109.970553,36.4725106 L109.861617,36.5821277 C109.372085,37.1799149 108.883234,37.7811064 108.446809,38.4326809 L108.446809,38.4885106 C105.016,43.5554043 103,49.6537872 103,56.2437447 C103,57.2255319 103.053106,58.2066383 103.162043,59.1325957 C103.326809,59.5125106 103.326809,59.84 103.380596,60.1109787 L103.380596,60.1109787 Z M118.03183,77.7068936 L115.909617,75.908766 L115.202213,75.1986383 C114.601021,74.6001702 114.002553,73.9458723 113.457191,73.2384681 L121.954894,64.7414468 C123.154553,66.5395745 124.678298,68.0660426 126.475745,69.2091915 L118.03183,77.7068936 Z M123.915064,56.3533617 C123.915064,55.0474894 124.188766,53.7947234 124.569362,52.6508936 C124.678298,52.2682553 124.84034,51.940766 125.005106,51.6166809 C125.16783,51.2891915 125.332596,50.962383 125.550468,50.6348936 C126.803234,48.6747234 128.601362,47.2040851 130.779404,46.3319149 C131.97634,45.842383 133.284255,45.6245106 134.645957,45.6245106 C134.973447,45.6245106 135.354043,45.6245106 135.680851,45.677617 C135.898723,45.677617 136.117277,45.7334468 136.335149,45.7865532 C136.444085,45.7865532 136.553021,45.842383 136.661957,45.842383 C136.933617,45.8954894 137.260426,45.9513191 137.532085,46.0602553 L137.641021,46.0602553 C137.96783,46.1698723 138.242213,46.2229787 138.566298,46.3877447 C141.508255,47.5315745 143.797957,49.8185532 144.885957,52.7598298 C144.994894,53.0314894 145.10383,53.3582979 145.15966,53.6299574 L145.15966,53.6857872 L145.321702,54.5021277 C145.321702,54.6110638 145.374809,54.72 145.374809,54.8289362 C145.430638,55.0474894 145.430638,55.2653617 145.483745,55.4274043 C145.539574,55.7548936 145.539574,56.0817021 145.539574,56.4091915 C145.539574,57.7708936 145.265872,59.076766 144.83217,60.2757447 C144.013106,62.4544681 142.489362,64.3050213 140.529191,65.5046809 C140.202383,65.7225532 139.874894,65.8852766 139.548085,66.0500426 C139.220596,66.2120851 138.840681,66.3768511 138.513191,66.4857872 C137.369362,66.9194894 136.117277,67.1373617 134.808681,67.1373617 C134.481191,67.1373617 134.157106,67.1373617 133.829617,67.0842553 C133.611745,67.0842553 133.446979,67.0284255 133.228426,66.9753191 C133.119489,66.9753191 133.010553,66.9194894 132.90434,66.9194894 L132.085277,66.7574468 L132.03217,66.7574468 C131.757787,66.6485106 131.433702,66.5954043 131.159319,66.4857872 C128.218043,65.3957447 125.877957,63.1080851 124.787234,60.1668085 C124.678298,59.84 124.569362,59.5683404 124.460426,59.2415319 L124.460426,59.1857021 C124.406638,58.9140426 124.297702,58.6430638 124.241872,58.3155745 C124.241872,58.2066383 124.188766,58.0977021 124.188766,57.988766 C124.132936,57.7708936 124.132936,57.5523404 124.07983,57.3344681 C123.915064,57.0634894 123.915064,56.6801702 123.915064,56.3533617 L123.915064,56.3533617 Z M134.755574,83.533617 C133.938553,83.533617 133.066383,83.4777872 132.250043,83.4246809 C132.085277,83.4246809 131.922553,83.3688511 131.757787,83.3688511 C130.941447,83.2599149 130.180936,83.1537021 129.417702,82.9889362 C129.308766,82.9889362 129.199149,82.9358298 129.034383,82.9358298 C128.273872,82.770383 127.563745,82.6083404 126.803234,82.3904681 C126.747404,82.3904681 126.694298,82.3346383 126.585362,82.3346383 C125.822128,82.1160851 125.058213,81.792 124.297702,81.5182979 L123.970894,81.3555745 C123.20766,81.028766 122.500255,80.7012766 121.737021,80.2655319 L130.832511,71.1693617 L130.997277,71.1693617 C131.486809,71.2782979 132.03217,71.3879149 132.521021,71.4968511 C132.630638,71.4968511 132.795404,71.5499574 132.90434,71.5499574 C133.502809,71.6057872 134.101277,71.6588936 134.699745,71.6588936 C136.061447,71.6588936 137.313532,71.4968511 138.566298,71.1693617 L147.665191,80.2655319 C143.851064,82.3346383 139.439149,83.533617 134.755574,83.533617 L134.755574,83.533617 Z M155.888511,73.4039149 C155.561021,73.7838298 155.234213,74.1644255 154.906723,74.491234 C154.691574,74.7097872 154.473702,74.9834894 154.255149,75.1986383 L153.600851,75.8529362 C153.165106,76.2893617 152.728681,76.7251064 152.239149,77.1057021 C152.130213,77.2146383 151.96817,77.3235745 151.859234,77.4331915 C151.750298,77.5421277 151.640681,77.5979574 151.531745,77.7068936 L142.978894,69.2091915 C142.978894,69.2091915 143.034723,69.2091915 143.034723,69.1533617 L144.177872,68.3370213 C144.23166,68.2811915 144.287489,68.2811915 144.287489,68.2280851 C145.539574,67.2469787 146.574468,66.0500426 147.499745,64.7414468 L155.997447,73.2384681 C155.94434,73.2942979 155.94434,73.3480851 155.888511,73.4039149 L155.888511,73.4039149 Z M158.611915,43.3906383 C158.99183,44.0980426 159.375149,44.8612766 159.701957,45.6245106 L159.864681,45.9513191 C160.191489,46.7118298 160.462468,47.4757447 160.681021,48.2389787 C160.681021,48.2920851 160.736851,48.3479149 160.736851,48.4568511 C160.954723,49.1642553 161.172596,49.9274894 161.335319,50.688 C161.335319,50.7969362 161.391149,50.9065532 161.391149,51.0713191 C161.553191,51.8345532 161.662128,52.6508936 161.771064,53.4114043 C161.771064,53.5761702 161.82417,53.7388936 161.82417,53.9036596 C161.88,54.72 161.933787,55.5363404 161.933787,56.4091915 C161.933787,61.1485957 160.681021,65.613617 158.558809,69.5366809 L149.459915,60.4384681 C149.843234,59.1325957 150.005277,57.7708936 150.005277,56.3533617 C150.005277,55.7548936 149.95217,55.1005957 149.89634,54.5021277 C149.89634,54.3931915 149.843234,54.2842553 149.843234,54.1746383 C149.787404,53.6299574 149.678468,53.1404255 149.515745,52.5950638 L149.515745,52.4861277 L158.611915,43.3906383 Z M151.640681,35.1108085 L155.997447,39.4702979 L156.106383,39.579234 L147.609362,48.1293617 C146.465532,46.3319149 144.941787,44.8081702 143.14366,43.6085106 L151.640681,35.1108085 Z M134.755574,29.1751489 C135.571915,29.1751489 136.444085,29.2282553 137.260426,29.2840851 C137.423149,29.2840851 137.587915,29.3371915 137.749957,29.3371915 C138.566298,29.4461277 139.329532,29.5550638 140.092766,29.7198298 C140.202383,29.7198298 140.364426,29.773617 140.473362,29.8294468 C141.180766,29.9914894 141.835064,30.1535319 142.542468,30.3714043 C142.651404,30.427234 142.81617,30.427234 142.925787,30.4810213 C143.689021,30.6988936 144.396426,30.9725957 145.10383,31.3000851 C145.265872,31.3531915 145.430638,31.4621277 145.593362,31.515234 C146.193872,31.7889362 146.845447,32.0605957 147.446638,32.3874043 L147.774128,32.5528511 C147.827234,32.5528511 147.827234,32.6059574 147.883064,32.6059574 L138.840681,41.6483404 C138.784851,41.6483404 138.731064,41.6483404 138.675234,41.5925106 C138.133277,41.4304681 137.587915,41.3208511 137.042553,41.2650213 C136.880511,41.2650213 136.771574,41.2119149 136.606128,41.2119149 C136.00766,41.1560851 135.354043,41.1029787 134.699745,41.1029787 C133.284255,41.1029787 131.922553,41.3208511 130.614638,41.6483404 L121.627404,32.6059574 C125.550468,30.427234 130.01617,29.1751489 134.755574,29.1751489 L134.755574,29.1751489 Z M113.513021,39.5234043 L117.925617,35.1108085 L126.419915,43.6085106 C125.114043,44.4806809 123.915064,45.5686809 122.936,46.8214468 C122.88017,46.8772766 122.88017,46.930383 122.827064,46.930383 L122.010723,48.0735319 C122.010723,48.0735319 122.010723,48.1293617 121.954894,48.1293617 L113.404085,39.6323404 C113.457191,39.579234 113.457191,39.5234043 113.513021,39.5234043 L113.513021,39.5234043 Z M110.899234,43.3906383 L119.994723,52.4861277 C119.667234,53.7388936 119.502468,54.9916596 119.502468,56.3533617 C119.502468,57.0076596 119.558298,57.6054468 119.611404,58.2597447 C119.611404,58.4251915 119.667234,58.5341277 119.667234,58.6961702 L119.994723,60.3288511 C119.994723,60.3846809 119.994723,60.4384681 120.04783,60.4942979 L111.00817,69.4808511 C111.00817,69.4277447 110.95234,69.4277447 110.95234,69.3719149 C110.899234,69.2629787 110.843404,69.1533617 110.789617,68.9913191 C110.462809,68.3901277 110.189106,67.7916596 109.917447,67.1931915 C109.861617,67.0284255 109.755404,66.866383 109.699574,66.7043404 C109.427915,65.9942128 109.154213,65.2868085 108.883234,64.5235745 C108.827404,64.3608511 108.827404,64.2519149 108.773617,64.0898723 C108.555745,63.4355745 108.393702,62.7281702 108.228936,62.0738723 C108.17583,61.9649362 108.17583,61.8001702 108.12,61.6905532 C107.957277,60.9300426 107.84834,60.1668085 107.739404,59.3504681 C107.739404,59.1857021 107.683574,59.0229787 107.683574,58.8051064 C107.630468,57.988766 107.574638,57.1724255 107.574638,56.2995745 C107.574638,51.6697872 108.773617,47.2571915 110.899234,43.3906383 L110.899234,43.3906383 Z"></path>
                </g>
            </g>
        </g>
    </g>
</svg>