<svg width="64px" height="64px" viewBox="0 0 64 64" version="1.1" xmlns="http://www.w3.org/2000/svg" xmlns:xlink="http://www.w3.org/1999/xlink">
    <g stroke="none" stroke-width="1" fill="none" fill-rule="evenodd">
        <g transform="translate(-838.000000, -902.000000)" fill="#FFFFFF">
            <g transform="translate(135.000000, 814.000000)">
                <g transform="translate(600.000000, 64.000000)">
                    <g transform="translate(103.000000, 24.000000)">
                        <path d="M32,64 C14.3562677,64 0,49.6440545 0,32.0007181 C0,14.3559455 14.3562677,-1.42108547e-14 32,-1.42108547e-14 C49.6437323,-1.42108547e-14 64,14.3559455 64,32.0007181 C64,49.6440545 49.6437323,64 32,64 L32,64 Z M32.0023275,3 C16.0138848,3 3,16.0138848 3,32.0038792 C3,47.9923219 16.0138848,61 32.0023275,61 C47.9923219,61 61,47.9923219 61,32.0038792 C61,16.0138848 47.9923219,3 32.0023275,3 L32.0023275,3 Z"></path>
                        <path d="M41.2016101,29.4293333 C41.2009057,29.4230943 41.2005031,29.4163522 41.1996981,29.4097107 C41.1949686,29.3771069 41.1887296,29.344805 41.1800755,29.3126038 C41.179673,29.3122013 41.179673,29.3117987 41.179673,29.3113962 C41.1714214,29.2815094 41.1607547,29.2520252 41.1489811,29.2229434 C41.1458616,29.2142893 41.1419371,29.2064403 41.1384151,29.1981887 C41.128956,29.176956 41.1186918,29.1565283 41.1073208,29.1361006 C41.1025912,29.127044 41.0978616,29.1179874 41.092327,29.1093333 C41.0896101,29.1046038 41.0872956,29.0995723 41.084478,29.0948428 C41.0723019,29.0759245 41.0593208,29.0583145 41.0460377,29.0406038 C41.0436226,29.0374843 41.0417107,29.0338616 41.0392956,29.0307421 C41.0188679,29.0043774 40.9972327,28.9804277 40.9744906,28.957283 C40.9701635,28.952956 40.965434,28.9490314 40.9611069,28.9447044 C40.9413836,28.9257862 40.920956,28.907673 40.8993208,28.8907673 C40.8938868,28.8868428 40.8887547,28.8825157 40.8828176,28.8781887 C40.8541384,28.8570566 40.8246541,28.8373333 40.7940629,28.8200252 L28.9339371,22.0786918 L35.7626164,17.7784151 L47.2106667,24.2858868 L42.3891321,27.3216604 C42.0129811,27.5586415 41.9001761,28.0559497 42.1367547,28.4321006 C42.3738365,28.8082516 42.8706415,28.9210566 43.2468931,28.6840755 L49.2063396,24.9317233 C49.4457358,24.7811824 49.5888302,24.5154214 49.5821887,24.2324528 C49.5758491,23.9493836 49.4213836,23.6907673 49.1753459,23.5507925 L36.1391698,16.1407799 C35.8812579,15.993761 35.563673,16.0013082 35.3125031,16.1592956 L26.9433962,21.4289308 C26.9417862,21.4301384 26.9402767,21.4313459 26.9382642,21.4320503 L22.7567296,24.0657107 C22.754717,24.0669182 22.7527044,24.0681258 22.7507925,24.0692327 L14.3761509,29.3428931 C14.1367547,29.493434 13.9940629,29.7590943 14.0004025,30.0421635 C14.0066415,30.3251321 14.1612075,30.5838491 14.4076478,30.7237233 L27.4438239,38.1337358 C27.567195,38.2040755 27.7044528,38.2390943 27.8416101,38.2390943 C27.9905409,38.2390943 28.1395723,38.197434 28.2703899,38.1152201 L34.2295346,34.3624654 C34.6057862,34.1258868 34.7189937,33.6286792 34.4819119,33.2524277 C34.2453333,32.8762767 33.7480252,32.7630692 33.3718742,33.0000503 L27.8203774,36.4957987 L16.3722264,29.9887296 L23.2009057,25.6883522 L35.4108176,32.6286289 L35.4108176,41.8208805 C35.4108176,42.1141132 35.5700126,42.3841006 35.8266164,42.5256855 C35.9480755,42.5925031 36.0821132,42.6259119 36.2158491,42.6259119 C36.3651824,42.6259119 36.5141132,42.5842516 36.6446289,42.5020377 L40.8322013,39.8652579 C41.0660629,39.7178365 41.2083522,39.4608302 41.2083522,39.1841006 L41.2083522,29.5237233 C41.2083522,29.5189937 41.2071447,29.5146667 41.2071447,29.5095346 C41.2067421,29.4827673 41.2048302,29.4561006 41.2016101,29.4293333 L41.2016101,29.4293333 Z M37.0208805,40.3624654 L37.0208805,32.1605031 C37.0208805,31.8707925 36.8652075,31.6038239 36.6136352,31.4608302 L24.7464654,24.7150692 L27.3879748,23.0519748 L38.8361258,29.559044 L37.833761,30.1903899 C37.4575094,30.4269686 37.3447044,30.9242767 37.5813836,31.3004277 C37.734239,31.5437484 37.9960755,31.6765786 38.2633459,31.6765786 C38.4099623,31.6765786 38.5585912,31.6365283 38.6914214,31.552805 L39.5978868,30.9820377 L39.5978868,38.7398239 L37.0208805,40.3624654 Z"></path>
                        <path d="M48.3486792,26.789434 L42.3891321,30.5417862 C42.0129811,30.7787673 41.9001761,31.275673 42.1367547,31.6518239 C42.2901132,31.8951447 42.5514465,32.0279748 42.8192201,32.0279748 C42.965434,32.0279748 43.1139623,31.988327 43.2472956,31.9042013 L49.2063396,28.1518491 C49.5825912,27.9147673 49.6957987,27.4179623 49.458717,27.0417107 C49.2221384,26.6651572 48.7248302,26.5523522 48.3486792,26.789434 L48.3486792,26.789434 Z"></path>
                        <path d="M33.3718742,36.2201761 L27.8199748,39.7159245 L15.2028176,32.5441006 C14.816805,32.3247296 14.3250314,32.4595723 14.1053585,32.8463899 C13.8855849,33.232805 14.0208302,33.7241761 14.4072453,33.9438491 L27.4434214,41.3538616 C27.567195,41.4242013 27.7044528,41.4592201 27.8412075,41.4592201 C27.9905409,41.4592201 28.1395723,41.4175597 28.2700881,41.3353459 L34.2295346,37.5825912 C34.6057862,37.3460126 34.7189937,36.848805 34.4819119,36.4725535 C34.2453333,36.0964025 33.7480252,35.983195 33.3718742,36.2201761 L33.3718742,36.2201761 Z"></path>
                        <path d="M48.3486792,30.0095597 L42.3891321,33.7619119 C42.0129811,33.9988931 41.9001761,34.4957987 42.1367547,34.8719497 C42.2901132,35.1152704 42.5514465,35.2481006 42.8192201,35.2481006 C42.965434,35.2481006 43.1139623,35.2084528 43.2472956,35.124327 L49.2063396,31.3719748 C49.5825912,31.1348931 49.6957987,30.6380881 49.458717,30.2618365 C49.2221384,29.885283 48.7248302,29.772478 48.3486792,30.0095597 L48.3486792,30.0095597 Z"></path>
                        <path d="M33.3718742,39.4403019 L27.8199748,42.9360503 L15.2028176,35.7642264 C14.816805,35.5448553 14.3250314,35.6796981 14.1053585,36.0665157 C13.8855849,36.4529308 14.0208302,36.9443019 14.4072453,37.1639748 L27.4434214,44.5739874 C27.567195,44.644327 27.7044528,44.6793459 27.8412075,44.6793459 C27.9905409,44.6793459 28.1395723,44.6376855 28.2700881,44.5554717 L34.2295346,40.802717 C34.6057862,40.5661384 34.7189937,40.0689308 34.4819119,39.6926792 C34.2453333,39.3161258 33.7480252,39.2033208 33.3718742,39.4403019 L33.3718742,39.4403019 Z"></path>
                        <path d="M48.3486792,33.2296855 L42.3891321,36.9820377 C42.0129811,37.2190189 41.9001761,37.7159245 42.1367547,38.0920755 C42.2901132,38.3353962 42.5514465,38.4682264 42.8192201,38.4682264 C42.965434,38.4682264 43.1139623,38.4285786 43.2472956,38.3444528 L49.2063396,34.5921006 C49.5825912,34.3550189 49.6957987,33.8582138 49.458717,33.4819623 C49.2221384,33.1054088 48.7248302,32.9926038 48.3486792,33.2296855 L48.3486792,33.2296855 Z"></path>
                        <path d="M33.3718742,42.6604277 L27.8199748,46.1561761 L15.2028176,38.9843522 C14.816805,38.7649811 14.3250314,38.8998239 14.1053585,39.2866415 C13.8855849,39.6730566 14.0208302,40.1644277 14.4072453,40.3841006 L27.4434214,47.7941132 C27.567195,47.8644528 27.7044528,47.8994717 27.8412075,47.8994717 C27.9905409,47.8994717 28.1395723,47.8578113 28.2700881,47.7755975 L34.2295346,44.0228428 C34.6057862,43.7862642 34.7189937,43.2890566 34.4819119,42.912805 C34.2453333,42.5366541 33.7480252,42.4234465 33.3718742,42.6604277 L33.3718742,42.6604277 Z"></path>
                    </g>
                </g>
            </g>
        </g>
    </g>
</svg>